<?xml version="1.0" standalone="no"?>
<!DOCTYPE svg PUBLIC "-//W3C//DTD SVG 20010904//EN"
 "http://www.w3.org/TR/2001/REC-SVG-20010904/DTD/svg10.dtd">
<svg version="1.0" xmlns="http://www.w3.org/2000/svg"
 width="600.000000pt" height="600.000000pt" viewBox="0 0 600.000000 600.000000"
 preserveAspectRatio="xMidYMid meet">
<metadata>
Created by potrace 1.11, written by Peter Selinger 2001-2013
</metadata>
<g transform="translate(0.000000,600.000000) scale(0.100000,-0.100000)"
fill="#000000" stroke="none">
<path d="M2903 5915 c-75 -21 -116 -39 -170 -76 -47 -32 -2492 -2452 -2564
-2538 -133 -157 -156 -364 -62 -556 25 -53 126 -154 1850 -1860 720 -713 740
-731 813 -765 64 -29 88 -35 169 -38 115 -5 184 9 276 56 64 33 147 112 908
867 1780 1764 1732 1715 1765 1781 80 156 83 313 10 462 -28 57 -150 181
-1292 1316 -694 688 -1283 1267 -1309 1285 -27 18 -74 42 -105 53 -75 27 -218
33 -289 13z m462 -825 c55 -27 113 -87 177 -185 29 -44 60 -81 69 -83 19 -3
29 34 29 109 0 65 28 97 92 105 26 4 57 4 70 1 60 -15 225 -395 287 -659 6
-26 11 -77 12 -115 0 -37 4 -90 7 -118 l7 -50 65 -7 c91 -9 192 -43 242 -81
24 -18 66 -68 95 -112 28 -44 72 -108 97 -143 25 -35 55 -91 68 -125 16 -43
38 -76 74 -112 66 -64 74 -81 74 -155 0 -58 -3 -66 -47 -128 -91 -126 -129
-160 -201 -182 -36 -11 -111 -28 -166 -36 -88 -14 -105 -20 -128 -45 -36 -37
-35 -55 3 -112 44 -67 50 -96 39 -208 -7 -70 -17 -116 -35 -156 -19 -41 -28
-84 -35 -159 -15 -172 -57 -239 -168 -269 -89 -24 -125 -46 -146 -88 -17 -36
-17 -40 -1 -83 19 -51 42 -70 199 -169 114 -73 150 -113 139 -156 -14 -54
-125 -82 -328 -83 -172 -1 -170 -2 -330 109 -49 34 -108 71 -130 83 -22 11
-57 39 -78 62 -37 42 -39 43 -90 37 -29 -3 -88 -22 -132 -41 -47 -21 -96 -36
-120 -36 -98 -1 -108 -25 -45 -113 49 -68 51 -96 8 -136 -54 -50 -102 -56
-370 -42 -532 27 -669 46 -803 108 -52 23 -75 27 -180 31 -114 4 -123 6 -182
38 -87 48 -150 101 -232 193 -83 94 -87 114 -36 169 33 38 34 40 29 108 -4 57
-1 79 18 124 29 69 58 77 111 31 19 -17 40 -31 45 -31 23 0 33 40 26 102 -7
73 11 330 31 433 36 189 60 230 230 400 124 123 234 215 356 296 125 84 321
129 556 129 181 0 334 -35 437 -100 26 -17 55 -30 65 -30 10 0 46 25 80 55 64
57 97 78 143 89 15 3 33 16 40 29 18 33 38 359 26 432 -10 67 -17 80 -104 192
-70 89 -131 187 -159 253 -17 39 -20 76 -23 295 -4 276 1 315 46 339 40 22
128 20 177 -4z"/>
</g>
</svg>
